<svg width="9" height="19" viewBox="0 0 9 19" fill="none" xmlns="http://www.w3.org/2000/svg">
<path d="M7.89044 9.37937H5.44669V18.7892H1.75232V9.37937H0V6.07312H1.75663V3.93268C1.70522 3.42138 1.76465 2.905 1.93086 2.41874C2.09707 1.93248 2.36616 1.48777 2.71978 1.11491C3.0734 0.742052 3.50325 0.44981 3.98003 0.258099C4.45681 0.0663892 4.96932 -0.0202825 5.48263 0.00399075L8.21387 0.0169283V3.22687H6.22869C6.11721 3.2219 6.00607 3.24256 5.90382 3.28724C5.79988 3.33205 5.70746 3.39988 5.63356 3.48562C5.55765 3.57204 5.5017 3.67413 5.46969 3.78462C5.4369 3.89604 5.42856 4.01323 5.44525 4.12818V6.07599H8.20669L7.89044 9.37937Z" fill="#8E9680"/>
</svg>
