<svg width="18" height="18" viewBox="0 0 18 18" fill="none" xmlns="http://www.w3.org/2000/svg">
<path d="M0.0531875 5.175C0.0680425 4.44445 0.206565 3.72171 0.462875 3.03744C0.684055 2.44975 1.03091 1.91745 1.47919 1.47775C1.91889 1.02947 2.45119 0.682617 3.03888 0.461437C3.72277 0.205778 4.44502 0.067744 5.175 0.0531874C6.11369 0.0100624 6.41412 0 8.80612 0C11.1981 0 11.5 0.0100624 12.4358 0.0531874C13.1664 0.0680424 13.8891 0.206565 14.5734 0.462875C15.1583 0.689079 15.6896 1.03491 16.1331 1.47825C16.5767 1.92158 16.9228 2.45264 17.1494 3.03744C17.4052 3.72179 17.5432 4.44454 17.5576 5.175C17.6007 6.11369 17.6108 6.41412 17.6108 8.80612C17.6108 11.1981 17.6007 11.5 17.5576 12.4373C17.5428 13.1678 17.4042 13.8905 17.1479 14.5748C16.9217 15.1599 16.5756 15.6913 16.132 16.1349C15.6884 16.5785 15.157 16.9245 14.5719 17.1508C13.8877 17.4071 13.1649 17.5456 12.4344 17.5605C11.4957 17.6036 11.1953 17.6137 8.80325 17.6137C6.41125 17.6137 6.11225 17.6036 5.17212 17.5605C4.44158 17.5456 3.71883 17.4071 3.03456 17.1508C2.45021 16.9241 1.91962 16.5779 1.47678 16.1343C1.03395 15.6907 0.688607 15.1595 0.462875 14.5748C0.206565 13.8905 0.0680425 13.1678 0.0531875 12.4373C0.0100625 11.5 0 11.1981 0 8.80612C0 6.41412 0.0100625 6.11512 0.0531875 5.175ZM1.63444 12.3625C1.64102 12.9211 1.74362 13.4745 1.93775 13.9984C2.08476 14.3783 2.30973 14.7232 2.59817 15.0109C2.88661 15.2986 3.23212 15.5227 3.61244 15.6687C4.13586 15.8627 4.68871 15.9653 5.24688 15.9721C6.1755 16.0138 6.45437 16.0238 8.80469 16.0238C11.155 16.0238 11.4353 16.0152 12.3625 15.9721C12.9216 15.9656 13.4755 15.863 13.9998 15.6687C14.3789 15.5222 14.7232 15.298 15.0106 15.0106C15.298 14.7232 15.5222 14.3789 15.6687 13.9998C15.8635 13.4756 15.9666 12.9217 15.9735 12.3625C16.0152 11.4339 16.0252 11.155 16.0252 8.80469C16.0252 6.45437 16.0166 6.1755 15.9735 5.24544C15.9658 4.6877 15.8628 4.13539 15.6687 3.61244C15.5225 3.2326 15.2983 2.88761 15.0106 2.59968C14.7229 2.31174 14.3781 2.08724 13.9984 1.94062C13.4745 1.74644 12.9212 1.64384 12.3625 1.63731C11.4353 1.59562 11.1564 1.58125 8.80612 1.58125C6.45437 1.58125 6.18125 1.59563 5.24688 1.63875C4.68871 1.6455 4.13586 1.74809 3.61244 1.94206C3.23228 2.08404 2.88853 2.30895 2.60619 2.60044C2.3147 2.88278 2.08979 3.22653 1.94781 3.60669C1.75357 4.13053 1.65097 4.6839 1.6445 5.24256C1.59563 6.18125 1.58125 6.45437 1.58125 8.80612C1.58125 11.1579 1.59563 11.4368 1.63731 12.3625H1.63444Z" fill="#8E9680"/>
<path d="M8.80613 4.28516C9.70057 4.28516 10.5749 4.55039 11.3186 5.04731C12.0623 5.54424 12.642 6.25054 12.9843 7.07689C13.3265 7.90325 13.4161 8.81255 13.2416 9.6898C13.0671 10.5671 12.6364 11.3729 12.0039 12.0053C11.3715 12.6378 10.5657 13.0685 9.6884 13.243C8.81114 13.4175 7.90185 13.3279 7.07549 12.9857C6.24913 12.6434 5.54284 12.0637 5.04591 11.32C4.54899 10.5763 4.28375 9.70197 4.28375 8.80753C4.28375 7.60812 4.76022 6.45784 5.60833 5.60973C6.45644 4.76162 7.60672 4.28516 8.80613 4.28516ZM8.80613 11.7429C9.38663 11.7429 9.9541 11.5708 10.4368 11.2483C10.9195 10.9258 11.2957 10.4675 11.5179 9.93118C11.7401 9.3949 11.7983 8.80476 11.6852 8.2354C11.5721 7.66603 11.2926 7.14299 10.8823 6.73242C10.4719 6.32184 9.94898 6.04216 9.37967 5.92873C8.81036 5.81531 8.2202 5.87323 7.6838 6.09519C7.14741 6.31714 6.68887 6.69315 6.36615 7.17568C6.04344 7.65821 5.87104 8.22559 5.87075 8.80609C5.87075 9.19157 5.94668 9.57328 6.0942 9.92941C6.24171 10.2855 6.45793 10.6091 6.7305 10.8817C7.28099 11.4322 8.02762 11.7429 8.80613 11.7429Z" fill="#8E9680"/>
<path d="M3.05335 4.10549C3.0525 4.31488 3.11389 4.51981 3.22972 4.69425C3.34555 4.86869 3.51061 5.00478 3.70393 5.08524C3.89725 5.1657 4.11012 5.1869 4.31551 5.14615C4.5209 5.1054 4.70956 5.00454 4.85752 4.85638C5.00548 4.70821 5.10609 4.51942 5.14655 4.31397C5.18702 4.10852 5.16553 3.89568 5.0848 3.70247C5.00408 3.50926 4.86777 3.34439 4.69317 3.2288C4.51857 3.11321 4.31356 3.0521 4.10417 3.05324C3.82569 3.05475 3.55907 3.16614 3.36229 3.36319C3.16551 3.56024 3.05449 3.82701 3.05335 4.10549Z" fill="#8E9680"/>
</svg>
