<svg width="56" height="56" viewBox="0 0 56 56" fill="none" xmlns="http://www.w3.org/2000/svg">
<circle cx="28" cy="28" r="27" fill="#3D2B1F" stroke="#D9B382" stroke-width="2"/>
<circle cx="29" cy="28" r="23" fill="#D9B382"/>
<path d="M28.5887 17.3387C26.1113 18.0554 25.9735 20.4465 26.0842 25.2782C21.214 23.021 19.9453 20.5004 20.0018 12.6472C20.3596 7.23393 24.6512 6.51215 29.662 7.23393C35.0288 7.59482 37.489 10.9461 37.8893 13.369C38.6049 17.6996 35.7385 23.8979 32.5244 26C32.0361 20.0776 31.2173 18.0818 28.5887 17.3387Z" fill="#3D2B1F" stroke="#D9B382"/>
<path d="M26.0953 26.7072C26.5256 25.2093 27.0838 24.6164 28.5368 24.2157C29.6718 24.0138 30.4571 23.8163 31.4221 24.3061C31.8397 24.5181 32.1353 24.9035 32.3392 25.325C32.6927 26.0561 32.8094 26.37 32.9223 26.8316C32.9593 26.9829 32.9815 27.1378 32.9891 27.2934C33.0399 28.3257 32.9333 29.0212 32.2212 29.9412C31.9058 30.3485 31.4512 30.6233 30.9567 30.7676C30.0908 31.0202 29.3541 31.1282 28.0335 30.7718C27.5271 30.6352 27.0727 30.3379 26.7693 29.9101C26.2143 29.1277 26.0294 28.4499 26.0033 27.4245C25.9972 27.1825 26.0284 26.9399 26.0953 26.7072Z" fill="#3D2B1F" stroke="#D9B382"/>
<path d="M36.0188 34.8319C33.9809 35.0472 33.0316 34.4634 31.6023 32.4599C29.1837 36.9148 29.9998 38.9499 32.6522 42.5755C37.7939 47.9611 40.2511 46.0269 44.9599 41.9432C49.2574 37.4285 48.2467 34.7445 44.8301 30.5373C42.0486 27.2643 40.0642 26.6652 35.4299 28.8056C37.4632 31.7617 38.0115 34.1647 36.0188 34.8319Z" fill="#3D2B1F" stroke="#D9B382"/>
<path d="M24.6398 43.2457C29.411 40.6409 29.6966 37.4583 28.8875 32.8755C26.7217 35.177 23.9983 36.396 22.7302 34.3426C20.8457 31.2911 21.8804 29.2809 24.1205 26.0788C20.2506 25.0972 17.9087 25.244 14.0518 29.7905C11.7486 32.9788 11.1651 35.4467 15.572 41.3835C18.303 44.5075 22.2542 44.5481 24.6398 43.2457Z" fill="#3D2B1F" stroke="#D9B382"/>
<path d="M17.724 10.1743C17.5788 16.0478 18.0738 19.2442 21.4544 24.5279C16.0611 25.3291 13.7298 27.0581 9.99996 30.9335C11.1318 27.8361 11.2413 26.0647 16.2433 23.2241C14.4115 22.5611 14.1274 21.9614 14.0769 20.7513C14.9516 20.1177 15.5968 20.0311 17.155 20.5799C16.1065 15.1149 16.4872 13.119 17.724 10.1743Z" fill="#3D2B1F" stroke="#D9B382"/>
<path d="M39.7573 11.1743C39.9026 17.0478 39.4076 20.2442 36.0269 25.5279C41.4203 26.3291 43.7515 28.0581 47.4814 31.9335C46.3495 28.8361 46.24 27.0647 41.238 24.2241C43.0698 23.5611 43.3539 22.9614 43.4044 21.7513C42.5297 21.1177 41.8845 21.0311 40.3263 21.5799C41.3748 16.1149 40.9941 14.119 39.7573 11.1743Z" fill="#3D2B1F" stroke="#D9B382"/>
</svg>
