<svg width="56" height="56" viewBox="0 0 56 56" fill="none" xmlns="http://www.w3.org/2000/svg">
<circle cx="28" cy="28" r="27" fill="#D9B382" stroke="#3D2B1F" stroke-width="2"/>
<circle cx="29" cy="28" r="23" fill="#3D2B1F"/>
<path d="M28.5887 17.3387C26.1113 18.0554 25.9735 20.4465 26.0842 25.2782C21.214 23.021 19.9453 20.5004 20.0018 12.6472C20.3596 7.23393 24.6512 6.51215 29.662 7.23393C35.0288 7.59482 37.489 10.9461 37.8893 13.369C38.6049 17.6996 35.7385 23.8979 32.5244 26C32.0361 20.0776 31.2173 18.0818 28.5887 17.3387Z" fill="#D9B382" stroke="#3D2B1F"/>
<path d="M26.0953 25.7072C26.5256 24.2093 27.0838 23.6164 28.5368 23.2157C29.6718 23.0138 30.4571 22.8163 31.4221 23.3061C31.8397 23.5181 32.1353 23.9035 32.3392 24.325C32.6927 25.0561 32.8094 25.37 32.9223 25.8316C32.9593 25.9829 32.9815 26.1378 32.9891 26.2934C33.0399 27.3257 32.9333 28.0212 32.2212 28.9412C31.9058 29.3485 31.4512 29.6233 30.9567 29.7676C30.0908 30.0202 29.3541 30.1282 28.0335 29.7718C27.5271 29.6352 27.0727 29.3379 26.7693 28.9101C26.2143 28.1277 26.0294 27.4499 26.0033 26.4245C25.9972 26.1825 26.0284 25.9399 26.0953 25.7072Z" fill="#D9B382" stroke="#3D2B1F"/>
<path d="M36.019 34.8319C33.9811 35.0472 33.0318 34.4634 31.6025 32.4599C29.184 36.9148 30.0001 38.9499 32.6524 42.5755C37.7941 47.9611 40.2514 46.0269 44.9602 41.9432C49.2576 37.4286 48.247 34.7445 44.8304 30.5373C42.0488 27.2644 40.0645 26.6652 35.4302 28.8056C37.4635 31.7617 38.0118 34.1647 36.019 34.8319Z" fill="#D9B382" stroke="#3D2B1F"/>
<path d="M24.6398 43.2455C29.411 40.6407 29.6966 37.4581 28.8875 32.8753C26.7217 35.1768 23.9983 36.3958 22.7302 34.3424C20.8457 31.2909 21.8804 29.2807 24.1205 26.0786C20.2506 25.097 17.9087 25.2438 14.0518 29.7903C11.7486 32.9785 11.1651 35.4465 15.572 41.3833C18.303 44.5073 22.2542 44.5478 24.6398 43.2455Z" fill="#D9B382" stroke="#3D2B1F"/>
<path d="M17.7241 10.1744C17.5789 16.0479 18.0739 19.2443 21.4545 24.528C16.0612 25.3293 13.7299 27.0582 10.0001 30.9336C11.132 27.8363 11.2414 26.0649 16.2434 23.2243C14.4116 22.5612 14.1276 21.9615 14.0771 20.7514C14.9517 20.1178 15.5969 20.0312 17.1552 20.58C16.1066 15.115 16.4874 13.1191 17.7241 10.1744Z" fill="#D9B382" stroke="#3D2B1F"/>
<path d="M39.7573 11.1744C39.9026 17.0479 39.4076 20.2443 36.0269 25.528C41.4203 26.3293 43.7515 28.0582 47.4814 31.9336C46.3495 28.8363 46.24 27.0649 41.238 24.2243C43.0698 23.5612 43.3539 22.9615 43.4044 21.7514C42.5297 21.1178 41.8845 21.0312 40.3263 21.58C41.3748 16.115 40.9941 14.1191 39.7573 11.1744Z" fill="#D9B382" stroke="#3D2B1F"/>
</svg>
