<svg width="16" height="19" viewBox="0 0 16 19" fill="none" xmlns="http://www.w3.org/2000/svg">
<path d="M8.91119 13.6259C7.94254 13.4717 7.03415 13.0568 6.28344 12.4255C5.76737 15.013 5.13344 17.4899 3.27619 18.7865C2.70119 14.8779 4.12431 11.9411 4.77981 8.82605C3.65137 7.01192 4.91062 3.36355 7.2825 4.26486C10.2006 5.3703 4.75537 11.0024 8.41094 11.7054C12.2261 12.4399 13.7843 5.36598 11.4182 3.06455C7.99837 -0.258954 1.46494 2.98836 2.26994 7.74505C2.46544 8.90798 3.72037 9.26017 2.77019 10.8644C0.580874 10.4001 -0.0703141 8.74698 0.00587344 6.54473C0.17335 4.85417 0.932249 3.27699 2.1488 2.09121C3.36535 0.905426 4.96145 0.18717 6.65575 0.0630462C10.7771 -0.378266 14.6454 1.51348 15.1801 5.22798C15.781 9.4183 13.32 13.955 8.91262 13.6287L8.91119 13.6259Z" fill="#8E9680"/>
</svg>
