<svg width="64" height="58" viewBox="0 0 64 58" fill="none" xmlns="http://www.w3.org/2000/svg">
<rect x="10.1783" y="23.2765" width="26.6154" height="5.0455" rx="2.52275" transform="rotate(-52.7088 10.1783 23.2765)" fill="#D9B382" stroke="#3D2B1F" stroke-width="3"/>
<rect x="36.8384" y="2.09897" width="26.6154" height="5.0455" rx="2.52275" transform="rotate(53.3241 36.8384 2.09897)" fill="#D9B382" stroke="#3D2B1F" stroke-width="3"/>
<path d="M46.7153 56H17.1678C13.2864 56 9.96492 53.2138 9.28979 49.3915L6.5045 33.6223C5.63919 28.7232 9.40766 24.2308 14.3826 24.2308H48.9435C53.807 24.2308 57.5453 28.5344 56.8648 33.3501L54.6366 49.1193C54.0789 53.0659 50.7011 56 46.7153 56Z" fill="#D9B382" stroke="#3D2B1F" stroke-width="3"/>
<rect x="1.5" y="21.4231" width="60.5385" height="6.69231" rx="3.34615" fill="#D9B382" stroke="#3D2B1F" stroke-width="3"/>
<rect x="16.5771" y="49.1154" width="14.7692" height="5.07692" rx="2.53846" transform="rotate(-90 16.5771 49.1154)" stroke="#3D2B1F" stroke-width="3"/>
<rect x="28.9619" y="49.1154" width="14.7692" height="5.07692" rx="2.53846" transform="rotate(-90 28.9619 49.1154)" stroke="#3D2B1F" stroke-width="3"/>
<rect x="41.0352" y="49.4145" width="14.7692" height="5.07692" rx="2.53846" transform="rotate(-90 41.0352 49.4145)" stroke="#3D2B1F" stroke-width="3"/>
</svg>
