<svg width="18" height="15" viewBox="0 0 18 15" fill="none" xmlns="http://www.w3.org/2000/svg">
<path d="M17.6109 1.66471C16.9508 1.95277 16.2518 2.14168 15.5366 2.22533C16.2867 1.7848 16.8516 1.08711 17.1264 0.261709C16.4137 0.676516 15.6362 0.968109 14.8264 1.12421C14.4862 0.767903 14.077 0.484514 13.6237 0.291267C13.1705 0.0980208 12.6828 -0.00104756 12.1901 8.41102e-05C11.2397 -0.00642135 10.3257 0.364679 9.64882 1.03182C8.97197 1.69896 8.58772 2.60756 8.5805 3.5579C8.57986 3.83087 8.61121 4.10298 8.67393 4.36865C7.24166 4.29992 5.83947 3.93321 4.55693 3.29196C3.27487 2.65084 2.14051 1.74953 1.22624 0.645521C0.904869 1.18662 0.735522 1.80443 0.736063 2.43377C0.736879 3.02222 0.884224 3.60119 1.16481 4.11844C1.44539 4.63568 1.85036 5.0749 2.34318 5.39646C1.76942 5.37932 1.20786 5.22662 0.704433 4.95083V4.99683C0.710208 5.82334 1.0023 6.62229 1.53097 7.25764C2.05963 7.89298 2.79219 8.32543 3.60388 8.48133C3.0716 8.62439 2.51389 8.64552 1.97231 8.54315C2.20911 9.25413 2.66123 9.87383 3.26601 10.3163C3.87079 10.7589 4.59826 11.0022 5.34756 11.0128C3.81976 12.1713 1.90597 12.7002 6.10352e-05 12.4905C1.65761 13.5371 3.57846 14.0909 5.53874 14.0876C6.88042 14.1068 8.21254 13.8593 9.45774 13.3593C10.7029 12.8594 11.8364 12.117 12.7923 11.1753C13.7481 10.2336 14.5073 9.11141 15.0258 7.87382C15.5443 6.63623 15.8117 5.30796 15.8126 3.96615C15.8126 3.81233 15.8126 3.65852 15.8025 3.50615C16.5103 3.00509 17.1227 2.38145 17.6109 1.66471Z" fill="#8E9680"/>
</svg>
